<mxfile host="app.diagrams.net" agent="Mozilla/5.0 (Macintosh; Intel Mac OS X 10_15_7) AppleWebKit/605.1.15 (KHTML, like Gecko) Version/18.4 Safari/605.1.15" version="27.0.6">
  <diagram name="Page-1" id="u5RsOQjyN-ek3awXOhG_">
    <mxGraphModel dx="879" dy="597" grid="1" gridSize="10" guides="1" tooltips="1" connect="1" arrows="1" fold="1" page="1" pageScale="1" pageWidth="827" pageHeight="1169" math="0" shadow="0">
      <root>
        <mxCell id="0" />
        <mxCell id="1" parent="0" />
        <mxCell id="WfHPWLbNMJrmekppZ4q--1" value="" style="shape=actor;whiteSpace=wrap;html=1;" vertex="1" parent="1">
          <mxGeometry x="40" y="92.2" width="20" height="30" as="geometry" />
        </mxCell>
        <mxCell id="WfHPWLbNMJrmekppZ4q--4" value="" style="points=[];aspect=fixed;html=1;align=center;shadow=0;dashed=0;fillColor=#FF6A00;strokeColor=none;shape=mxgraph.alibaba_cloud.vms_voice_messaging_service;" vertex="1" parent="1">
          <mxGeometry x="920" y="607.8" width="31.18" height="30" as="geometry" />
        </mxCell>
        <mxCell id="WfHPWLbNMJrmekppZ4q--5" value="" style="rounded=0;whiteSpace=wrap;html=1;" vertex="1" parent="1">
          <mxGeometry x="144" y="42.35" width="726" height="129.7" as="geometry" />
        </mxCell>
        <mxCell id="WfHPWLbNMJrmekppZ4q--6" value="1) DATA COLLECTION" style="text;html=1;align=center;verticalAlign=middle;resizable=0;points=[];autosize=1;strokeColor=none;fillColor=none;" vertex="1" parent="1">
          <mxGeometry x="880" y="85" width="150" height="30" as="geometry" />
        </mxCell>
        <mxCell id="WfHPWLbNMJrmekppZ4q--7" value="" style="rounded=0;whiteSpace=wrap;html=1;" vertex="1" parent="1">
          <mxGeometry x="144" y="220" width="726" height="250" as="geometry" />
        </mxCell>
        <mxCell id="WfHPWLbNMJrmekppZ4q--8" value="2) PROCESSOR" style="text;html=1;align=center;verticalAlign=middle;resizable=0;points=[];autosize=1;strokeColor=none;fillColor=none;" vertex="1" parent="1">
          <mxGeometry x="900" y="300" width="110" height="30" as="geometry" />
        </mxCell>
        <mxCell id="WfHPWLbNMJrmekppZ4q--9" style="edgeStyle=orthogonalEdgeStyle;rounded=0;orthogonalLoop=1;jettySize=auto;html=1;exitX=0.5;exitY=1;exitDx=0;exitDy=0;" edge="1" parent="1" source="WfHPWLbNMJrmekppZ4q--7" target="WfHPWLbNMJrmekppZ4q--7">
          <mxGeometry relative="1" as="geometry" />
        </mxCell>
        <mxCell id="WfHPWLbNMJrmekppZ4q--11" value="" style="shape=actor;whiteSpace=wrap;html=1;" vertex="1" parent="1">
          <mxGeometry x="980" y="607.8" width="20" height="30" as="geometry" />
        </mxCell>
        <mxCell id="WfHPWLbNMJrmekppZ4q--12" value="" style="points=[];aspect=fixed;html=1;align=center;shadow=0;dashed=0;fillColor=#FF6A00;strokeColor=none;shape=mxgraph.alibaba_cloud.vms_voice_messaging_service;" vertex="1" parent="1">
          <mxGeometry x="80" y="100" width="31.18" height="30" as="geometry" />
        </mxCell>
      </root>
    </mxGraphModel>
  </diagram>
</mxfile>
